<svg id="visual" viewBox="0 0 900 450" width="900" height="450" xmlns="http://www.w3.org/2000/svg" xmlns:xlink="http://www.w3.org/1999/xlink" version="1.1"><path d="M0 131L16.7 136.2C33.3 141.3 66.7 151.7 100 152C133.3 152.3 166.7 142.7 200 148C233.3 153.3 266.7 173.7 300 180C333.3 186.3 366.7 178.7 400 182.3C433.3 186 466.7 201 500 185.2C533.3 169.3 566.7 122.7 600 115.7C633.3 108.7 666.7 141.3 700 155.3C733.3 169.3 766.7 164.7 800 158.5C833.3 152.3 866.7 144.7 883.3 140.8L900 137L900 451L883.3 451C866.7 451 833.3 451 800 451C766.7 451 733.3 451 700 451C666.7 451 633.3 451 600 451C566.7 451 533.3 451 500 451C466.7 451 433.3 451 400 451C366.7 451 333.3 451 300 451C266.7 451 233.3 451 200 451C166.7 451 133.3 451 100 451C66.7 451 33.3 451 16.7 451L0 451Z" fill="#00008b"></path><path d="M0 195L16.7 186.8C33.3 178.7 66.7 162.3 100 168C133.3 173.7 166.7 201.3 200 200.7C233.3 200 266.7 171 300 165.2C333.3 159.3 366.7 176.7 400 186.3C433.3 196 466.7 198 500 205.2C533.3 212.3 566.7 224.7 600 216.7C633.3 208.7 666.7 180.3 700 164.2C733.3 148 766.7 144 800 141.2C833.3 138.3 866.7 136.7 883.3 135.8L900 135L900 451L883.3 451C866.7 451 833.3 451 800 451C766.7 451 733.3 451 700 451C666.7 451 633.3 451 600 451C566.7 451 533.3 451 500 451C466.7 451 433.3 451 400 451C366.7 451 333.3 451 300 451C266.7 451 233.3 451 200 451C166.7 451 133.3 451 100 451C66.7 451 33.3 451 16.7 451L0 451Z" fill="#0038ab"></path><path d="M0 242L16.7 238.3C33.3 234.7 66.7 227.3 100 229.8C133.3 232.3 166.7 244.7 200 248.2C233.3 251.7 266.7 246.3 300 234.3C333.3 222.3 366.7 203.7 400 199.8C433.3 196 466.7 207 500 215C533.3 223 566.7 228 600 225.5C633.3 223 666.7 213 700 210.8C733.3 208.7 766.7 214.3 800 213.3C833.3 212.3 866.7 204.7 883.3 200.8L900 197L900 451L883.3 451C866.7 451 833.3 451 800 451C766.7 451 733.3 451 700 451C666.7 451 633.3 451 600 451C566.7 451 533.3 451 500 451C466.7 451 433.3 451 400 451C366.7 451 333.3 451 300 451C266.7 451 233.3 451 200 451C166.7 451 133.3 451 100 451C66.7 451 33.3 451 16.7 451L0 451Z" fill="#0061c5"></path><path d="M0 265L16.7 271.3C33.3 277.7 66.7 290.3 100 296.5C133.3 302.7 166.7 302.3 200 303.3C233.3 304.3 266.7 306.7 300 298.2C333.3 289.7 366.7 270.3 400 273C433.3 275.7 466.7 300.3 500 303C533.3 305.7 566.7 286.3 600 285.8C633.3 285.3 666.7 303.7 700 302.3C733.3 301 766.7 280 800 275.2C833.3 270.3 866.7 281.7 883.3 287.3L900 293L900 451L883.3 451C866.7 451 833.3 451 800 451C766.7 451 733.3 451 700 451C666.7 451 633.3 451 600 451C566.7 451 533.3 451 500 451C466.7 451 433.3 451 400 451C366.7 451 333.3 451 300 451C266.7 451 233.3 451 200 451C166.7 451 133.3 451 100 451C66.7 451 33.3 451 16.7 451L0 451Z" fill="#1887d8"></path><path d="M0 331L16.7 337.5C33.3 344 66.7 357 100 360.2C133.3 363.3 166.7 356.7 200 349.3C233.3 342 266.7 334 300 334.2C333.3 334.3 366.7 342.7 400 344.3C433.3 346 466.7 341 500 341.8C533.3 342.7 566.7 349.3 600 349.7C633.3 350 666.7 344 700 335.5C733.3 327 766.7 316 800 312.7C833.3 309.3 866.7 313.7 883.3 315.8L900 318L900 451L883.3 451C866.7 451 833.3 451 800 451C766.7 451 733.3 451 700 451C666.7 451 633.3 451 600 451C566.7 451 533.3 451 500 451C466.7 451 433.3 451 400 451C366.7 451 333.3 451 300 451C266.7 451 233.3 451 200 451C166.7 451 133.3 451 100 451C66.7 451 33.3 451 16.7 451L0 451Z" fill="#50ace5"></path><path d="M0 359L16.7 361.5C33.3 364 66.7 369 100 372C133.3 375 166.7 376 200 372.8C233.3 369.7 266.7 362.3 300 364C333.3 365.7 366.7 376.3 400 385.5C433.3 394.7 466.7 402.3 500 397.3C533.3 392.3 566.7 374.7 600 373.3C633.3 372 666.7 387 700 389.8C733.3 392.7 766.7 383.3 800 378.3C833.3 373.3 866.7 372.7 883.3 372.3L900 372L900 451L883.3 451C866.7 451 833.3 451 800 451C766.7 451 733.3 451 700 451C666.7 451 633.3 451 600 451C566.7 451 533.3 451 500 451C466.7 451 433.3 451 400 451C366.7 451 333.3 451 300 451C266.7 451 233.3 451 200 451C166.7 451 133.3 451 100 451C66.7 451 33.3 451 16.7 451L0 451Z" fill="#89cff0"></path></svg>